<?xml version="1.0" standalone="no"?><!DOCTYPE svg PUBLIC "-//W3C//DTD SVG 1.1//EN" "http://www.w3.org/Graphics/SVG/1.1/DTD/svg11.dtd"><svg t="1750583694367" class="icon" viewBox="0 0 1024 1024" version="1.1" xmlns="http://www.w3.org/2000/svg" p-id="3651" xmlns:xlink="http://www.w3.org/1999/xlink" width="200" height="200"><path d="M512 0C229.216 0 0 229.216 0 512s229.216 512 512 512 512-229.216 512-512S794.784 0 512 0zM512 960C264.576 960 64 759.424 64 512S264.576 64 512 64s448 200.576 448 448S759.424 960 512 960z" p-id="3652"></path><path d="M466.752 687.52c-12.512 12.512-32.768 12.512-45.248 0l-181.024-181.024c-12.512-12.512-12.512-32.768 0-45.248l0 0c12.512-12.512 32.768-12.512 45.248 0l181.024 181.024C479.232 654.784 479.232 675.04 466.752 687.52L466.752 687.52z" p-id="3653"></path><path d="M466.752 687.52c-12.512 12.512-32.768 12.512-45.248 0l0 0c-12.512-12.512-12.512-32.768 0-45.248l316.768-316.768c12.512-12.512 32.768-12.512 45.248 0l0 0c12.512 12.512 12.512 32.768 0 45.248L466.752 687.52z" p-id="3654"></path></svg>