<?xml version="1.0" standalone="no"?><!DOCTYPE svg PUBLIC "-//W3C//DTD SVG 1.1//EN" "http://www.w3.org/Graphics/SVG/1.1/DTD/svg11.dtd"><svg t="1750584484672" class="icon" viewBox="0 0 1024 1024" version="1.1" xmlns="http://www.w3.org/2000/svg" p-id="8377" xmlns:xlink="http://www.w3.org/1999/xlink" width="200" height="200"><path d="M450.645333 176.981333a299.946667 299.946667 0 0 1 122.709334 0l71.808-71.850666 60.330666 60.373333-44.8 44.8A299.989333 299.989333 0 0 1 781.952 341.333333H896v85.333334h-88.32c1.962667 13.952 2.986667 28.16 2.986667 42.666666v42.666667h85.333333v85.333333h-85.333333v42.666667c0 14.506667-1.024 28.714667-2.986667 42.666667H896v85.333333h-114.090667a298.666667 298.666667 0 0 1-539.818666 0H128v-85.333333h88.32A301.226667 301.226667 0 0 1 213.333333 640v-42.666667H128v-85.333333h85.333333v-42.666667c0-14.506667 1.024-28.714667 2.986667-42.666666H128V341.333333h114.090667a299.946667 299.946667 0 0 1 121.173333-131.072l-44.8-44.8L378.88 105.173333l71.808 71.850667zM512 256a213.333333 213.333333 0 0 0-213.333333 213.333333v170.666667a213.333333 213.333333 0 0 0 426.666666 0v-170.666667a213.333333 213.333333 0 0 0-213.333333-213.333333z m-128 341.333333h256v85.333334H384v-85.333334z m0-170.666666h256v85.333333H384v-85.333333z" fill="#000000" p-id="8378"></path></svg>