<?xml version="1.0" standalone="no"?><!DOCTYPE svg PUBLIC "-//W3C//DTD SVG 1.1//EN" "http://www.w3.org/Graphics/SVG/1.1/DTD/svg11.dtd"><svg t="1750584178204" class="icon" viewBox="0 0 1024 1024" version="1.1" xmlns="http://www.w3.org/2000/svg" p-id="1861" xmlns:xlink="http://www.w3.org/1999/xlink" width="200" height="200"><path d="M947.57 425.68L531.7 72.85a32 32 0 0 0-41.4 0L74.43 425.68a32 32 0 0 0 41.4 48.8l11.07-9.39v463.65a32 32 0 0 0 64 0V411.31v-0.5L511 139.22l320.16 271.63V609.08a32 32 0 0 0 64 0V465.14l11 9.34a32 32 0 1 0 41.4-48.8z" fill="#666666" p-id="1862"></path><path d="M511.01 864.49m12 0l72 0q12 0 12 12l0 72q0 12-12 12l-72 0q-12 0-12-12l0-72q0-12 12-12Z" fill="#666666" p-id="1863"></path><path d="M655.02 864.49m12 0l72 0q12 0 12 12l0 72q0 12-12 12l-72 0q-12 0-12-12l0-72q0-12 12-12Z" fill="#666666" p-id="1864"></path><path d="M511.75 737.38m12 0l72 0q12 0 12 12l0 72q0 12-12 12l-72 0q-12 0-12-12l0-72q0-12 12-12Z" fill="#666666" p-id="1865"></path><path d="M511.75 609.9m12 0l72 0q12 0 12 12l0 72q0 12-12 12l-72 0q-12 0-12-12l0-72q0-12 12-12Z" fill="#666666" p-id="1866"></path><path d="M655.02 736.65m12 0l72 0q12 0 12 12l0 72q0 12-12 12l-72 0q-12 0-12-12l0-72q0-12 12-12Z" fill="#666666" p-id="1867"></path><path d="M799.02 864.49m12 0l72 0q12 0 12 12l0 72q0 12-12 12l-72 0q-12 0-12-12l0-72q0-12 12-12Z" fill="#666666" p-id="1868"></path><path d="M446.89 760H315.3l21.27-21.22a25 25 0 0 0-35.31-35.4l-64.07 63.92-0.24 0.25-0.55 0.58-0.06 0.07-0.36 0.41-0.38 0.44-0.09 0.11-0.33 0.42-0.07 0.09-0.25 0.33-0.12 0.15-0.31 0.44-0.07 0.1-0.21 0.3-0.13 0.19-0.29 0.46v0.07l-0.2 0.31-0.13 0.21-0.27 0.48-0.2 0.36-0.12 0.22-0.23 0.46-0.21 0.42-0.1 0.21-0.19 0.43-0.21 0.49-0.08 0.2-0.15 0.4-0.21 0.57-0.06 0.17-0.12 0.37c-0.07 0.21-0.14 0.42-0.21 0.64v0.15l-0.1 0.35c-0.06 0.23-0.13 0.45-0.18 0.68v0.13c0 0.12-0.05 0.24-0.08 0.36s-0.11 0.47-0.15 0.71v0.11c0 0.13 0 0.26-0.07 0.39s-0.08 0.46-0.12 0.69v0.1c0 0.16 0 0.31-0.06 0.47s-0.06 0.42-0.08 0.63v4.91c0 0.21 0.05 0.43 0.08 0.64s0 0.32 0.06 0.47v0.09c0 0.23 0.08 0.47 0.12 0.7s0 0.26 0.07 0.4v0.1c0 0.24 0.1 0.47 0.16 0.71s0.05 0.24 0.08 0.37v0.12l0.18 0.68 0.1 0.36v0.14c0.06 0.21 0.13 0.42 0.2 0.62l0.13 0.39 0.06 0.17 0.21 0.55 0.16 0.42 0.08 0.19 0.2 0.47 0.2 0.46 0.1 0.21 0.19 0.38 0.23 0.47 0.12 0.21 0.17 0.3 0.06 0.11 0.25 0.45 0.13 0.21 0.15 0.24 0.11 0.18 0.27 0.42 0.13 0.18 0.14 0.21 0.16 0.23 0.28 0.4 0.11 0.15 0.16 0.2 0.2 0.26 0.3 0.39 0.09 0.11 0.21 0.24 0.21 0.25 0.32 0.37 0.33 0.35 0.29 0.3 0.24 0.25 64 63.69a25 25 0 1 0 35.26-35.45l-21.07-21h131.46a25 25 0 0 0 0-50z" fill="#666666" p-id="1869"></path></svg>