<?xml version="1.0" standalone="no"?><!DOCTYPE svg PUBLIC "-//W3C//DTD SVG 1.1//EN" "http://www.w3.org/Graphics/SVG/1.1/DTD/svg11.dtd"><svg t="1750584824057" class="icon" viewBox="0 0 1169 1024" version="1.1" xmlns="http://www.w3.org/2000/svg" p-id="4525" xmlns:xlink="http://www.w3.org/1999/xlink" width="228.3203125" height="200"><path d="M1160.146618 347.020327L983.394868 68.243919a52.547817 52.547817 0 0 0-72.338553-16.378541L24.226591 611.465511A52.547817 52.547817 0 0 0 8.18927 682.439187l177.434189 280.141286a52.889037 52.889037 0 0 0 72.338554 16.037321l887.170943-560.623792a52.547817 52.547817 0 0 0 15.013662-70.973675z m-34.12196 41.97001L238.853715 949.955348a16.71976 16.71976 0 0 1-23.202932-5.118294l-177.434189-280.141286a17.06098 17.06098 0 0 1 5.459514-23.202932l887.170943-560.623792a16.71976 16.71976 0 0 1 23.202932 5.118294l177.775409 280.141286a17.402199 17.402199 0 0 1-5.459514 22.861713zM361.351549 211.556148l14.672443 34.121959 19.108297-34.121959 38.216595-3.070976-23.885372-26.273909 8.53049-37.192936-34.121959 15.696102-34.12196-19.790737 4.094635 37.875375-30.027324 25.932689z m225.887371-105.436854l-18.425858-34.12196-15.696101 34.12196-37.534155 7.165611 28.662446 25.25025-5.118294 39.581473 34.121959-19.108297 34.121959 16.37854L599.181606 136.487837l25.932689-27.638787z m343.949351 563.012329l-30.027325-23.202933v38.216595l-31.733422 21.496834 36.510497 11.942686 10.577807 36.851716 22.520493-30.709763h38.216595l-21.838054-30.027324 12.966344-34.12196z m-123.521493 152.525158l-14.672443-34.121959-19.108297 34.121959-38.216594 2.729757 25.591469 28.321226L750.683106 887.170943l34.121959-15.354882 32.415861 20.473176-1.364878-39.240253 29.003665-24.567811-37.192935-8.18927z m-226.56981 102.365878l18.084638 34.121959 15.696101-34.121959 37.534156-6.824392-28.321227-25.932689 5.118294-38.216594-34.121959 18.767077-34.121959-16.37854 7.506831 37.534155-25.932689 28.321226z m-341.219594-565.742086l30.027324 23.885372v-37.192936l32.074642-21.496834-34.463179-12.283906L257.279573 272.975675l-22.861712 30.709763H196.201266l21.838054 31.050983L204.731756 370.905698l36.510497-11.601466z m-133.075641 166.173942A477.707431 477.707431 0 0 1 797.77141 87.352216l34.121959-22.179274A511.82939 511.82939 0 0 0 71.997334 545.95135l34.12196-22.179274zM1057.78074 499.545485a475.660113 475.660113 0 0 1-689.604799 437.102299l-34.121959 22.179274A511.82939 511.82939 0 0 0 1093.950017 477.707431l-34.12196 22.179273zM433.690103 276.72909a282.188604 282.188604 0 0 1 131.710763-42.652449l53.912696-34.121959a314.604465 314.604465 0 0 0-334.395201 211.556148l53.912695-34.12196a279.458847 279.458847 0 0 1 94.859047-102.365878z m298.225925 470.54182a277.07031 277.07031 0 0 1-131.369543 42.652449l-54.253916 34.121959a314.945685 314.945685 0 0 0 334.395202-211.897367l-53.912696 34.121959a276.72909 276.72909 0 0 1-94.859047 100.65978z" fill="#1890FF" p-id="4526"></path><path d="M407.074975 640.469177l-159.008331 102.365878 46.064646 70.973675a15.354882 15.354882 0 0 0 20.131956 7.506831l3.412196-2.388537 129.322225-83.94002a22.179274 22.179274 0 0 0 9.212929-12.283905 121.132956 121.132956 0 0 0-22.179273-51.865378l29.003665-7.848051a166.173942 166.173942 0 0 1 24.909031 66.196601 46.064645 46.064645 0 0 1-18.767078 25.25025l-142.97101 93.835388A34.121959 34.121959 0 0 1 272.975675 835.646784l-87.693436-134.440519 24.567811-16.037321 22.861713 34.121959 134.0993-87.352216-39.581473-60.054648L156.278574 682.439187l-15.013662-23.544152 195.518827-126.592469z m-2.729757-165.832722a409.463512 409.463512 0 0 1 70.632456 10.919027l-6.483172 29.686104a327.912029 327.912029 0 0 0-70.291236-13.307564z m305.050317 130.345884l-48.453182 30.709764a250.113962 250.113962 0 0 1-45.723426 23.202932 68.243919 68.243919 0 0 1-39.922692 0 17.06098 17.06098 0 0 0-14.672443 0c-5.459513 3.412196-7.165611 21.496834-4.777074 54.253915l-29.003666-5.118294a129.322226 129.322226 0 0 1 9.212929-63.125624l-47.088304-71.656115-34.121959 22.861713-15.354882-23.885372 58.68977-37.875375 63.466845 97.930024a22.179274 22.179274 0 0 1 6.483172 0 94.176608 94.176608 0 0 0 29.344885 2.388537 116.697101 116.697101 0 0 0 40.263912-17.06098l54.253916-34.121959 35.828057-23.544152c11.260247-8.18927 20.473176-14.672443 26.956348-19.790737l10.236588 28.662446z m-212.921027-114.991003l54.936355-34.121959c-6.824392-13.307564-14.331223-26.615128-22.520493-39.581473l-11.260247-17.06098 24.567811-16.037321 7.848051 11.942686a486.237921 486.237921 0 0 1 25.591469 44.699767l62.101966-39.922692 15.354882 23.544151-57.324892 37.192936a251.137621 251.137621 0 0 0 127.274909 51.182939l-5.118294 29.003666a300.273242 300.273242 0 0 1-120.791736-50.5005 187.329557 187.329557 0 0 1-3.753416 131.369543l-27.980007-10.236588a165.491503 165.491503 0 0 0-2.388537-132.393202l-51.182939 34.12196z m177.434189-192.78907l23.885372-15.696101 30.368543 46.747084 27.638788-18.084639 15.354881 23.544152-27.980006 18.084639 10.919027 16.71976a633.644785 633.644785 0 0 1 63.125624 16.37854v30.027325c-16.037321-7.506831-31.050983-13.990003-45.382206-20.131956L853.048984 518.312562l-24.226591 15.696102L750.683106 416.970343a404.686438 404.686438 0 0 1 10.236587 75.40953l-27.980006-19.790736a289.012996 289.012996 0 0 0-15.354882-105.095635l-28.662446 18.767078-15.354881-23.544152 29.344885-18.767078zM853.048984 354.868377a423.453515 423.453515 0 0 1 25.932689 116.014662h-30.368544a324.841053 324.841053 0 0 0-21.155615-106.460513z m72.338553-56.642452A908.326558 908.326558 0 0 1 1010.351216 375.341553l-15.696101 24.567811a1134.213929 1134.213929 0 0 0-88.375875-78.480507z m-9.554148 175.72809l-19.790737-19.449516a262.397867 262.397867 0 0 0 23.544152-13.307565c6.483172-4.094635 7.506831-9.554149 2.729757-16.71976l-68.243919-102.365878-60.737087 39.240253-15.013662-23.544151 146.041986-94.859047 15.013662 23.544151-61.760747 37.875375 71.314895 110.213929a27.297567 27.297567 0 0 1-2.388537 38.557814 25.932689 25.932689 0 0 1-6.483172 4.094635zM750.683106 265.468844l119.426857-77.456848 15.013662 23.202932-119.426857 77.456848z" fill="#1890FF" p-id="4527"></path></svg>