<?xml version="1.0" standalone="no"?><!DOCTYPE svg PUBLIC "-//W3C//DTD SVG 1.1//EN" "http://www.w3.org/Graphics/SVG/1.1/DTD/svg11.dtd"><svg t="1750584423181" class="icon" viewBox="0 0 1024 1024" version="1.1" xmlns="http://www.w3.org/2000/svg" p-id="5577" xmlns:xlink="http://www.w3.org/1999/xlink" width="200" height="200"><path d="M792.533 537.813l-339.413 0c-27.733 0-50.133-22.4-50.133-50.133s22.4-50.133 50.133-50.133l339.413 0c27.733 0 50.133 22.4 50.133 50.133s-22.613 50.133-50.133 50.133l0 0zM792.533 736.213l-339.413 0c-27.733 0-50.133-22.4-50.133-50.133s22.4-50.133 50.133-50.133l339.413 0c27.733 0 50.133 22.4 50.133 50.133s-22.613 50.133-50.133 50.133l0 0zM1022.933 900.053l0-634.027c0-77.013-70.187-69.76-70.187-69.76s-418.987 0.427-396.587 0c-23.893 0.427-36.053-12.587-36.053-12.587s-16.64-28.8-46.72-74.027c-31.36-47.573-67.84-39.893-67.84-39.893l-308.48 0c-85.547 0-86.4 82.347-86.4 82.347l0 743.893c0 91.733 69.333 80.427 69.333 80.427l879.147 0c74.24 0 63.787-76.373 63.787-76.373l0 0zM960 862.507c0 28.373-22.827 51.2-51.2 51.2l-784 0c-28.373 0-51.2-22.827-51.2-51.2l0-530.773c0-28.373 22.827-51.2 51.2-51.2l784 0c28.373 0 51.2 22.827 51.2 51.2l0 530.773zM213.333 487.68c0 29.573 23.973 53.547 53.547 53.547s53.547-23.973 53.547-53.547c0-29.573-23.973-53.547-53.547-53.547-29.573 0-53.547 23.973-53.547 53.547zM213.333 686.08c0 29.573 23.973 53.547 53.547 53.547s53.547-23.973 53.547-53.547c0-29.573-23.973-53.547-53.547-53.547-29.573 0-53.547 23.973-53.547 53.547z" fill="#272636" p-id="5578"></path></svg>