<svg viewBox="0 0 1024 1024" xmlns="http://www.w3.org/2000/svg"
     width="200" height="200">
    <path d="M32 32l0 960 960 0 0-960-960 0zM624.189 142.88l104.334 0 0 104.356-104.334 0 0-104.356zM294.604 142.88l104.334 0 0 104.356-104.334 0 0-104.356zM950.262 950.262l-876.524 0 0-573.906 876.524 0 0 573.906zM347.011 843.113l53.171 0 0-378.414-118.626 0 0 42.96 65.454 0zM649.738 802.204c-42.284-2.727-63.404-27.273-63.404-73.636l-53.193 0c-1.374 77.738 36.829 116.596 114.546 116.596 81.818-1.374 124.08-45.687 126.829-132.96-4.102-85.92-40.909-130.909-110.466-135.011-31.374 1.374-53.193 11.586-65.454 30.676l-2.051 0 14.313-96.131 145.222 0 0-47.04-192.284 0-22.494 188.182 55.222 12.284c9.534-24.546 29.324-37.506 59.324-38.858 42.262 1.374 64.102 29.346 65.454 83.869 0.022 61.353-23.847 92.029-71.564 92.029z"
    />
</svg>