<svg viewBox="0 0 1024 1024" xmlns="http://www.w3.org/2000/svg"
     width="200" height="200">
    <path d="M992 992l-960 0 0-960 960 0 0 960zM73.738 950.262l876.524 0 0-876.524-876.524 0 0 876.524zM52.88 334.618l918.262 0 0 41.738-918.262 0 0-41.738zM294.604 142.88l104.334 0 0 104.356-104.334 0 0-104.356zM624.189 142.88l104.334 0 0 104.356-104.334 0 0-104.356zM281.556 464.698l118.647 0 0 378.414-53.193 0 0-335.454-65.454 0 0-42.96zM533.142 728.567l53.193 0c0 46.364 21.142 70.909 63.404 73.636 47.738 0 71.586-30.676 71.586-92.051-1.374-54.524-23.193-82.494-65.454-83.869-30 1.374-49.789 14.313-59.324 38.858l-55.222-12.284 22.494-188.182 192.284 0 0 47.04-145.222 0-14.313 96.131 2.051 0c12.284-19.091 34.08-29.324 65.454-30.676 69.556 4.102 106.364 49.091 110.466 135.011-2.749 87.273-45.011 131.586-126.829 132.96-77.76 0.022-115.942-38.858-114.567-116.574z"
    />
</svg>