<svg viewBox="0 0 1024 1024" xmlns="http://www.w3.org/2000/svg"
     width="200" height="200">
    <path d="M896 473.6v-233.6c0-54.4-41.6-96-96-96h-640c-54.4 0-96 41.6-96 96v448c0 54.4 41.6 96 96 96h425.6c41.6 57.6 108.8 96 182.4 96 124.8 0 224-99.2 224-224 0-76.8-38.4-144-96-182.4z m-342.4 246.4h-393.6c-19.2 0-32-12.8-32-32v-448c0-19.2 12.8-32 32-32h640c19.2 0 32 12.8 32 32v201.6h-3.2c-6.4-3.2-38.4-9.6-60.8-9.6-124.8 0-224 99.2-224 224 0 9.6 3.2 35.2 3.2 35.2 0 9.6 3.2 19.2 6.4 28.8 0-3.2 0 0 0 0z m214.4 96c-67.2 0-121.6-38.4-147.2-96-3.2-9.6-9.6-28.8-9.6-32-3.2-12.8-3.2-22.4-3.2-32 0-89.6 70.4-160 160-160 9.6 0 38.4 0 60.8 12.8 57.6 25.6 96 80 96 147.2 3.2 89.6-67.2 160-156.8 160z"
    />
    <path d="M576 496c0-19.2-12.8-32-32-32h-64v-25.6l80-80c12.8-12.8 12.8-32 0-44.8-12.8-12.8-32-12.8-44.8 0l-67.2 67.2-67.2-67.2c-12.8-12.8-32-12.8-44.8 0-12.8 12.8-12.8 32 0 44.8l80 80v25.6h-64c-19.2 0-32 12.8-32 32s12.8 32 32 32h64v64c0 19.2 12.8 32 32 32s32-12.8 32-32v-64h64c19.2 0 32-12.8 32-32zM822.4 585.6l-67.2 67.2-48-44.8c-12.8-12.8-32-12.8-44.8 0-12.8 12.8-12.8 32 0 44.8l67.2 67.2c6.4 6.4 16 9.6 22.4 9.6s16-3.2 22.4-9.6l89.6-89.6c12.8-12.8 12.8-32 0-44.8-9.6-12.8-32-12.8-41.6 0z"
    />
</svg>