<svg viewBox="0 0 1024 1024" xmlns="http://www.w3.org/2000/svg"
     width="200" height="200">
    <path d="M544 464h-64v-25.6l80-80c12.8-12.8 12.8-32 0-44.8-12.8-12.8-32-12.8-44.8 0l-67.2 67.2-67.2-67.2c-12.8-12.8-32-12.8-44.8 0-12.8 12.8-12.8 32 0 44.8l80 80v25.6h-64c-19.2 0-32 12.8-32 32s12.8 32 32 32h64v64c0 19.2 12.8 32 32 32s32-12.8 32-32v-64h64c19.2 0 32-12.8 32-32s-12.8-32-32-32z"
    />
    <path d="M896 473.6v-233.6c0-54.4-41.6-96-96-96h-640c-54.4 0-96 41.6-96 96v448c0 54.4 41.6 96 96 96h425.6c41.6 57.6 108.8 96 182.4 96 124.8 0 224-99.2 224-224 0-76.8-38.4-144-96-182.4z m-342.4 243.2l-393.6 3.2c-19.2 0-32-12.8-32-32v-448c0-19.2 12.8-32 32-32h640c19.2 0 32 12.8 32 32v201.6h-3.2c-6.4-3.2-32-9.6-60.8-9.6-124.8 0-224 99.2-224 224 0 9.6 6.4 51.2 9.6 60.8z m214.4 99.2c-67.2 0-121.6-38.4-147.2-96-3.2-9.6-12.8-25.6-12.8-64 0-89.6 70.4-160 160-160 28.8 0 51.2 6.4 60.8 12.8 57.6 25.6 96 80 96 147.2 3.2 89.6-67.2 160-156.8 160z"
    />
    <path d="M832 624h-128c-19.2 0-32 12.8-32 32s12.8 32 32 32h128c19.2 0 32-12.8 32-32s-12.8-32-32-32z"
    />
</svg>