<?xml version="1.0" standalone="no"?><!DOCTYPE svg PUBLIC "-//W3C//DTD SVG 1.1//EN" "http://www.w3.org/Graphics/SVG/1.1/DTD/svg11.dtd"><svg t="1750584522885" class="icon" viewBox="0 0 1024 1024" version="1.1" xmlns="http://www.w3.org/2000/svg" p-id="11160" xmlns:xlink="http://www.w3.org/1999/xlink" width="200" height="200"><path d="M461.28 696.32c-9.92 9.92-25.44 10.08-35.68 0.48L230.4 511.52c-10.24-9.76-10.56-25.92-0.96-36l0.48-0.48c9.76-9.76 25.6-9.92 35.52-0.48l177.12 168.16 315.2-315.04c4.8-4.8 11.2-7.52 18.08-7.52 6.88 0 13.28 2.72 18.08 7.52 9.92 9.92 9.92 26.08 0 36 0.16 0-332.64 332.64-332.64 332.64z" p-id="11161" fill="#1296db"></path><path d="M512 51.2c62.24 0 122.56 12.16 179.36 36.16 54.88 23.2 104.16 56.48 146.56 98.72 42.4 42.4 75.52 91.68 98.72 146.56 24 56.8 36.16 117.12 36.16 179.36s-12.16 122.56-36.16 179.36c-23.2 54.88-56.48 104.16-98.72 146.56-42.4 42.4-91.68 75.52-146.56 98.72-56.8 24-117.12 36.16-179.36 36.16s-122.56-12.16-179.36-36.16c-54.88-23.2-104.16-56.48-146.56-98.72-42.4-42.4-75.52-91.68-98.72-146.56C63.36 634.56 51.2 574.24 51.2 512s12.16-122.56 36.16-179.36c23.2-54.88 56.48-104.16 98.72-146.56 42.4-42.4 91.68-75.52 146.56-98.72C389.44 63.36 449.76 51.2 512 51.2m0-51.2C229.28 0 0 229.28 0 512s229.28 512 512 512 512-229.28 512-512S794.72 0 512 0z" p-id="11162" fill="#1296db"></path></svg>