<?xml version="1.0" standalone="no"?><!DOCTYPE svg PUBLIC "-//W3C//DTD SVG 1.1//EN" "http://www.w3.org/Graphics/SVG/1.1/DTD/svg11.dtd"><svg t="1750584528009" class="icon" viewBox="0 0 1024 1024" version="1.1" xmlns="http://www.w3.org/2000/svg" p-id="11367" xmlns:xlink="http://www.w3.org/1999/xlink" width="200" height="200"><path d="M511.972395 1024c-47.624939 0-359.092038-128.587335-441.721306-446.483801V142.938634H104.779169C209.31591 142.938634 333.855124 98.409316 475.301192 10.541304a69.056161 69.056161 0 0 1 73.342406 0C690.80404 98.409316 815.343255 142.938634 919.165621 142.938634h35.718704v433.386942C882.018169 894.936416 560.549833 1024 511.972395 1024zM140.497873 563.943092C211.935281 829.214001 473.872444 943.513854 511.972395 952.562592c39.766824-8.810614 309.562102-122.872342 371.474522-387.905126V212.947294C774.385808 204.13668 649.370343 156.749866 511.019896 71.501226 375.050696 156.749866 250.273357 204.374805 140.497873 212.947294z" p-id="11368"></path><path d="M446.011855 693.482925a35.718704 35.718704 0 0 1-26.193716-11.19186l-140.255445-150.256682A35.718704 35.718704 0 0 1 330.997628 483.218821l140.255445 150.256681a35.480579 35.480579 0 0 1-25.955592 60.007423z" p-id="11369"></path><path d="M445.77373 693.482925a35.718704 35.718704 0 0 1-25.479342-60.721797l272.41465-277.415268A35.718704 35.718704 0 0 1 743.667722 404.875797L471.491197 683.005439a36.909328 36.909328 0 0 1-25.717467 10.477486z" p-id="11370"></path></svg>