<?xml version="1.0" standalone="no"?><!DOCTYPE svg PUBLIC "-//W3C//DTD SVG 1.1//EN" "http://www.w3.org/Graphics/SVG/1.1/DTD/svg11.dtd"><svg t="1750584540536" class="icon" viewBox="0 0 1024 1024" version="1.1" xmlns="http://www.w3.org/2000/svg" p-id="11734" xmlns:xlink="http://www.w3.org/1999/xlink" width="200" height="200"><path d="M432.355556 940.562963H125.155556c-41.718519 0-79.644444-34.133333-79.644445-79.644444V364.088889c26.548148 18.962963 56.888889 34.133333 94.814815 34.133333C189.62963 398.222222 231.348148 379.259259 257.896296 341.333333c26.548148 34.133333 68.266667 56.888889 117.570371 56.888889s91.022222-18.962963 113.777777-56.888889c26.548148 34.133333 68.266667 56.888889 117.570371 56.888889s91.022222-18.962963 117.57037-56.888889c26.548148 34.133333 68.266667 56.888889 117.570371 56.888889 37.925926 0 68.266667-11.377778 94.814814-34.133333v68.266667H986.074074V117.57037 113.777778c-3.792593-60.681481-56.888889-113.777778-121.362963-113.777778H22.755556C18.962963 0 11.377778 3.792593 7.585185 7.585185 3.792593 11.377778 0 15.17037 0 22.755556v838.162963C3.792593 929.185185 56.888889 986.074074 125.155556 986.074074h310.992592v-45.511111z m273.066666-667.496296c-3.792593 49.303704-45.511111 79.644444-94.814815 79.644444s-91.022222-34.133333-91.022222-79.644444v-227.555556h189.62963v227.555556c-3.792593-3.792593-3.792593-3.792593-3.792593 0z m151.703704-227.555556h3.792593c41.718519 0 75.851852 34.133333 75.851851 75.851852v147.911111c0 49.303704-45.511111 83.437037-94.814814 83.437037s-91.022222-34.133333-91.022223-79.644444v-227.555556h106.192593z m-386.844445 0V269.274074c-3.792593 49.303704-45.511111 79.644444-94.814814 79.644445s-91.022222-30.340741-94.814815-75.851852v-227.555556h189.629629z m-424.77037 0h189.62963v227.555556C231.348148 322.37037 189.62963 352.711111 140.325926 352.711111c-53.096296 0-91.022222-34.133333-91.022222-83.437037V45.511111z" fill="#1afa29" p-id="11735"></path><path d="M757.266963 1011.370667a254.103704 254.103704 0 1 1 0-508.245334 254.103704 254.103704 0 0 1 0 508.207408z m0-462.696297c-113.777778 0-204.8 91.022222-204.8 204.8 0 113.777778 91.022222 204.8 204.8 204.8 113.777778 0 204.8-91.022222 204.8-204.8 0-109.985185-91.022222-204.8-204.8-204.8z" fill="#1afa29" p-id="11736"></path><path d="M667.496296 762.311111l64.474074 64.474074c7.585185 7.585185 7.585185 18.962963 0 26.548148-7.585185 7.585185-18.962963 7.585185-26.548148 0l-64.474074-64.474074c-7.585185-7.585185-7.585185-18.962963 0-26.548148 7.585185-7.585185 18.962963-7.585185 26.548148 0z" fill="#1afa29" p-id="11737"></path><path d="M713.007407 826.785185l132.740741-136.533333c7.585185-7.585185 15.17037-7.585185 22.755556 0 7.585185 7.585185 7.585185 15.17037 0 22.755555l-132.740741 136.533334c-3.792593 3.792593-11.377778 3.792593-18.962963 0l-3.792593-3.792593c-3.792593 0-7.585185-11.377778 0-18.962963z" fill="#1afa29" p-id="11738"></path></svg>