<svg viewBox="0 0 1024 1024" xmlns="http://www.w3.org/2000/svg"
     width="200" height="200">
    <path d="M298.666667 170.666667a42.666667 42.666667 0 0 1 42.666666 42.666666l0.042667 45.098667c97.92 12.202667 161.28 69.888 162.346667 145.962667H397.354667C394.581333 371.2 363.477333 339.754667 301.226667 339.754667c-55.168 0-89.429333 23.125333-89.429334 59.221333 0 28.16 25.173333 46.208 73.258667 54.912l81.578667 16.213333C445.44 484.906667 512 519.936 512 610.56c0 85.376-64.085333 142.677333-170.666667 154.965333V810.666667a42.666667 42.666667 0 0 1-85.333333 0v-44.629334c-126.762667-12.757333-169.216-86.016-170.666667-149.674666h109.525334c3.157333 34.986667 38.997333 66.773333 107.136 66.773333 63.445333 0 97.322667-25.258667 97.322666-61.738667 0-32.853333-27.562667-48.384-81.92-59.221333l-80.768-16.213333c-75.648-14.805333-138.666667-53.802667-138.666666-138.325334C97.92 323.626667 164.608 271.786667 256 259.072V213.333333a42.666667 42.666667 0 0 1 42.666667-42.666666z m469.333333 0a42.666667 42.666667 0 0 1 42.666667 42.666666v85.333334h85.333333a42.666667 42.666667 0 0 1 0 85.333333h-85.333333v85.333333a42.666667 42.666667 0 0 1-85.333334 0V384h-85.333333a42.666667 42.666667 0 0 1 0-85.333333h85.333333V213.333333a42.666667 42.666667 0 0 1 42.666667-42.666666z"
    />
</svg>