<?xml version="1.0" standalone="no"?><!DOCTYPE svg PUBLIC "-//W3C//DTD SVG 1.1//EN" "http://www.w3.org/Graphics/SVG/1.1/DTD/svg11.dtd"><svg t="1750583967653" class="icon" viewBox="0 0 1024 1024" version="1.1" xmlns="http://www.w3.org/2000/svg" p-id="1723" xmlns:xlink="http://www.w3.org/1999/xlink" width="200" height="200"><path d="M512 85.333333c235.648 0 426.666667 191.018667 426.666667 426.666667s-191.018667 426.666667-426.666667 426.666667S85.333333 747.648 85.333333 512 276.352 85.333333 512 85.333333z m0 85.333334a341.333333 341.333333 0 1 0 0 682.666666 341.333333 341.333333 0 0 0 0-682.666666z" fill="#000000" p-id="1724"></path><path d="M512 397.482667a42.666667 42.666667 0 0 1 42.666667 42.666666v298.666667a42.666667 42.666667 0 1 1-85.333334 0v-298.666667a42.666667 42.666667 0 0 1 42.666667-42.666666z" fill="#000000" p-id="1725"></path><path d="M431.829333 286.165333L512 366.293333l80.213333-80.128a42.666667 42.666667 0 0 1 56.32-3.541333l4.010667 3.541333a42.666667 42.666667 0 0 1 0 60.330667L561.92 437.034667A42.666667 42.666667 0 0 1 512 444.586667a42.581333 42.581333 0 0 1-49.92-7.594667L371.456 346.453333a42.666667 42.666667 0 0 1 60.330667-60.330666z" fill="#000000" p-id="1726"></path><path d="M362.666667 482.816m42.666666 0l213.333334 0q42.666667 0 42.666666 42.666667l0 0q0 42.666667-42.666666 42.666666l-213.333334 0q-42.666667 0-42.666666-42.666666l0 0q0-42.666667 42.666666-42.666667Z" fill="#000000" p-id="1727"></path><path d="M362.666667 610.816m42.666666 0l213.333334 0q42.666667 0 42.666666 42.666667l0 0q0 42.666667-42.666666 42.666666l-213.333334 0q-42.666667 0-42.666666-42.666666l0 0q0-42.666667 42.666666-42.666667Z" fill="#000000" p-id="1728"></path></svg>