
<svg class="icon" viewBox="0 0 1024 1024" xmlns="http://www.w3.org/2000/svg"
     width="200" height="200">
    <path d="M976.8 869.7h-12.1v0.6H37.5v-24.7C13.8 787.7 0.1 725.1 0.1 658.8 0.1 379.9 229.3 153.7 512 153.7s511.9 226.1 511.9 505.1c0 75.5-17 146.5-47.1 210.9zM512 227.6c-241.3 0-437 193-437 431.2 0 45.6 7.4 89.2 20.8 130.2h832.4c13.4-41 20.8-84.6 20.8-130.2 0-238.2-195.7-431.2-437-431.2z m287.8 398.8h103v61h-103v-61z m-70.3-130.2L816 441l33.6 51.2-86.6 55.2-33.5-51.2z m-259.4 139l301.3-246.5-249.7 299.9-51.6-53.4z m141.1-238.4l58.4-83.8 51 34.6-58.4 83.8-51-34.6zM470.1 280.7H532v101.7h-61.8V280.7z m56.1 285.4L431 637.3l94.8 86.3 70.2-93.3c2.5 8.3 4.2 16.8 4.2 25.9 0 50.9-41.8 92.1-93.4 92.1-51.6 0-93.3-41.3-93.3-92.1 0-50.9 41.8-92.1 93.3-92.1 6.7 0 13.1 0.7 19.4 2zM281.6 347.6l51-34.6 58.4 83.8-50.9 34.5-58.5-83.7z m-21.9 199.8l-86.5-55.2 33.6-51.2 86.5 55.2-33.6 51.2z m-36.8 140h-103v-61h103v61z"
          ></path>
</svg>