
<svg  viewBox="0 0 1024 1024"  xmlns="http://www.w3.org/2000/svg"
      width="200" height="200">
    <path d="M862.841905 824.07619a12.312381 12.312381 0 0 1-10.727619-18.285714c106.300952-186.514286 41.447619-425.447619-144.335238-532.723809-187.001905-108.007619-426.910476-43.641905-534.918096 143.36-68.998095 119.710476-69.485714 268.921905-0.731428 389.607619 3.413333 5.851429 1.219048 13.165714-4.632381 16.579047s-13.409524 1.219048-16.579048-4.632381c-72.899048-128.24381-72.655238-286.72 0.731429-413.744762 114.834286-198.704762 369.615238-266.971429 568.32-152.137142 197.485714 113.859048 266.24 367.908571 153.35619 565.881904-2.194286 3.900952-6.339048 6.095238-10.483809 6.095238z"
         ></path>
    <path d="M71.92381 824.07619c-4.632381 0-9.020952-2.681905-11.215239-7.070476-66.072381-145.554286-57.782857-314.758095 21.699048-452.510476C219.184762 127.512381 523.215238 46.32381 759.710476 182.857143c222.110476 128.24381 309.638095 400.822857 203.580953 634.148571-2.681905 6.095238-9.99619 8.777143-16.091429 6.095238a12.239238 12.239238 0 0 1-6.095238-16.091428c100.937143-221.622857 17.798095-480.792381-193.584762-602.940953-225.03619-129.950476-513.950476-52.662857-643.900952 172.373334-75.580952 130.925714-83.382857 291.84-20.72381 430.323809 2.681905 6.095238 0 13.409524-6.095238 16.091429-1.462857 0.975238-3.169524 1.219048-4.87619 1.219047zM833.097143 907.702857H190.659048c-6.826667 0-12.190476-5.36381-12.190477-12.190476s5.36381-12.190476 12.190477-12.190476h642.438095c6.826667 0 12.190476 5.36381 12.190476 12.190476s-5.36381 12.190476-12.190476 12.190476z"
          ></path>
    <path d="M604.891429 813.83619h-186.026667a35.376762 35.376762 0 0 1 0-70.704761h186.026667c19.504762 0 35.352381 15.847619 35.352381 35.352381 0.24381 19.504762-15.60381 35.352381-35.352381 35.35238z m-186.026667-46.567619c-6.095238 0-10.971429 4.87619-10.971429 10.971429s4.87619 10.971429 10.971429 10.971429h186.026667c6.095238 0 10.971429-4.87619 10.971428-10.971429s-4.87619-10.971429-10.971428-10.971429h-186.026667zM512 673.645714c-33.889524 0-61.44-27.550476-61.44-61.44S478.110476 551.009524 512 551.009524c33.889524 0 61.44 27.550476 61.44 61.19619s-27.794286 61.44-61.44 61.44z m0-98.255238c-20.48 0-37.059048 16.579048-37.059048 36.815238a37.059048 37.059048 0 1 0 74.118096 0c-0.24381-20.48-16.822857-36.815238-37.059048-36.815238z"
          ></path>
    <path d="M488.594286 667.550476a12.361143 12.361143 0 0 1-10.727619-18.041905l97.523809-185.051428c3.169524-5.851429 10.48381-8.289524 16.579048-5.12 5.851429 3.169524 8.289524 10.48381 5.12 16.579047l-97.52381 185.051429c-2.438095 4.144762-6.582857 6.582857-10.971428 6.582857zM512 348.40381c-6.826667 0-12.190476-5.36381-12.190476-12.190477v-37.302857c0-6.826667 5.36381-12.190476 12.190476-12.190476s12.190476 5.36381 12.190476 12.190476v37.302857c0 6.582857-5.607619 12.190476-12.190476 12.190477zM813.592381 617.569524h-37.302857c-6.826667 0-12.190476-5.36381-12.190476-12.190476s5.36381-12.190476 12.190476-12.190477h37.302857c6.826667 0 12.190476 5.36381 12.190476 12.190477s-5.36381 12.190476-12.190476 12.190476zM247.466667 617.569524H210.16381c-6.826667 0-12.190476-5.36381-12.190477-12.190476s5.36381-12.190476 12.190477-12.190477h37.302857c6.826667 0 12.190476 5.36381 12.190476 12.190477s-5.36381 12.190476-12.190476 12.190476zM379.367619 385.462857a11.946667 11.946667 0 0 1-10.727619-6.339047l-18.041905-32.426667a12.312381 12.312381 0 0 1 4.632381-16.579048c5.851429-3.169524 13.409524-1.219048 16.579048 4.876191l18.285714 32.426666c3.169524 5.851429 1.219048 13.165714-4.632381 16.579048-1.950476 0.975238-3.900952 1.462857-6.095238 1.462857zM737.767619 480.792381c-4.144762 0-8.289524-2.194286-10.483809-5.851429a12.288 12.288 0 0 1 4.144761-16.822857l31.939048-19.260952c5.851429-3.413333 13.165714-1.706667 16.822857 4.144762 3.413333 5.851429 1.706667 13.165714-4.144762 16.822857l-31.939047 19.260952c-1.950476 1.219048-4.144762 1.706667-6.339048 1.706667zM282.819048 486.64381c-2.194286 0-4.388571-0.487619-6.339048-1.706667l-31.939048-19.260953a12.239238 12.239238 0 1 1 12.678096-20.967619l31.939047 19.260953c5.851429 3.413333 7.558095 10.971429 4.144762 16.822857a12.678095 12.678095 0 0 1-10.483809 5.851429zM638.780952 382.049524a12.04419 12.04419 0 0 1-10.483809-18.041905l18.041905-32.426667c3.169524-5.851429 10.727619-8.045714 16.579047-4.87619 5.851429 3.169524 8.045714 10.727619 4.632381 16.579048l-18.041905 32.426666a12.190476 12.190476 0 0 1-10.727619 6.339048z"
          ></path>
</svg>