<svg  viewBox="0 0 1236 1024"  xmlns="http://www.w3.org/2000/svg"
     width="1em" height="1em">
    <path d="M1093.500718 957.381652C1163.625755 859.238108 1201.960114 741.647316 1201.960114 618.48433c0-322.244923-261.23086-583.475783-583.475784-583.475783S35.008547 296.239407 35.008547 618.48433c0 123.801892 38.731123 241.967407 109.535909 340.399773 23.522826 32.697983 69.09812 40.137299 101.79902 16.614472 32.697983-23.522826 40.137299-69.09812 16.61739-101.796102C209.858735 799.884034 180.877493 711.461197 180.877493 618.48433c0-241.684422 195.922416-437.606838 437.606837-437.606837s437.606838 195.922416 437.606838 437.606837c0 92.498416-28.68367 180.489481-81.275259 254.089117-23.417801 32.773835-15.835533 78.325789 16.938302 101.746507 32.773835 23.417801 78.325789 15.835533 101.746507-16.938302z"
          fill="#1296db" ></path>
</svg>

