<svg t="1748081028165" class="icon" viewBox="0 0 1024 1024" version="1.1" xmlns="http://www.w3.org/2000/svg" p-id="1465" width="200" height="200"><path d="M920.636543 1023.960008H103.179216A100.321141 100.321141 0 0 1 0.067599 921.594251V175.769457c0-58.488005 29.267498-89.408192 80.822807-96.736814h80.80181v2.093606a37.224002 37.224002 0 0 1 27.778778 35.363352v5.468972a37.224002 37.224002 0 0 1-27.778778 35.362353v0.441916h-2.326563a37.549941 37.549941 0 0 1-8.328434 1.65169h-31.75803a37.526945 37.526945 0 0 1-8.328434-1.65169h-3.119414c-22.100845 0-37.967862 6.70074-37.967862 28.639617v162.858384h884.087801V186.402459c0-21.938876-15.867017-28.639616-37.968862-28.639617H912.866004a37.526945 37.526945 0 0 1-8.328434 1.65169h-31.804022a37.572937 37.572937 0 0 1-8.329434-1.65169H862.075552v-0.441916a37.224002 37.224002 0 0 1-27.778778-35.363353v-5.490967a37.224002 37.224002 0 0 1 27.778778-35.363352v-2.071611h53.882871c58.931921 0 107.789737 38.24781 107.789736 96.736815v745.823793a100.321141 100.321141 0 0 1-103.112616 102.367757z m33.314737-604.901286H69.864478v488.575153a53.765893 53.765893 0 0 0 46.530253 46.530253h791.027296a53.765893 53.765893 0 0 0 46.531253-46.531252V419.058722zM721.80892 205.015959a34.665483 34.665483 0 0 1-36.829076-36.549129V36.829576a36.829077 36.829077 0 0 1 73.658153 0v131.635255a34.665483 34.665483 0 0 1-36.829077 36.550129z m-139.941692-65.817627H449.254158a48.856815 48.856815 0 0 1-36.830077-29.244502 40.10946 40.10946 0 0 1 29.454463-43.879751h139.918697a34.665483 34.665483 0 0 1 36.899063 36.573125 34.665483 34.665483 0 0 1-36.829076 36.551128z m-257.757545 58.512001a33.642676 33.642676 0 0 1-36.831076 0 37.898875 37.898875 0 0 1-14.727231-29.244503V29.52495A39.552565 39.552565 0 0 1 309.49943 0.279447a34.665483 34.665483 0 0 1 36.828077 36.550129v131.635255a30.664235 30.664235 0 0 1-22.217824 29.244502zM210.316075 582.938914h70.819687v230.771618h-70.819687V582.938914z m557.511195 0h70.819686v230.771618h-70.816687V582.938914z m-511.84078 91.433812h511.84078v70.820686H255.987489v-70.820686z" fill="#707070" p-id="1466"></path></svg>