<svg viewBox="0 0 1024 1024"  xmlns="http://www.w3.org/2000/svg"
     width="200" height="200">
    <path d="M951.037074 950.857143H73.322789a73.142857 73.142857 0 0 1-73.142858-73.142857V151.405714A73.142857 73.142857 0 0 1 73.322789 73.142857h877.714285a73.142857 73.142857 0 0 1 73.142857 76.8V877.714286a73.142857 73.142857 0 0 1-73.142857 73.142857z m0-731.428572a73.142857 73.142857 0 0 0-73.142857-73.142857H146.465646a85.577143 85.577143 0 0 0-73.142857 73.142857v585.142858a73.142857 73.142857 0 0 0 73.142857 73.142857h731.428571a73.142857 73.142857 0 0 0 73.142857-73.142857z m-146.285714 585.142858H658.465646l219.428571-219.428572v146.285714a130.925714 130.925714 0 0 1-73.142857 73.142858zM219.608503 292.571429h73.142857v438.857142H219.608503z"
          fill="#2c2c2c"/>
</svg>