<svg t="1748079921867" class="icon" viewBox="0 0 1024 1024" version="1.1" xmlns="http://www.w3.org/2000/svg"
     p-id="40642" width="200" height="200">
    <path d="M702.464 863.232H309.248c-158.72 0-287.744-129.024-287.744-287.744C21.504 415.744 150.528 286.72 309.248 286.72h394.24c158.72 0 287.744 129.024 287.744 287.744-1.024 158.72-130.048 288.768-288.768 288.768zM309.248 348.16C183.296 348.16 81.92 449.536 81.92 574.464c0 124.928 102.4 227.328 227.328 227.328h394.24c124.928 0 227.328-102.4 227.328-227.328s-102.4-227.328-227.328-227.328H309.248z"
          fill="#2c2c2c" p-id="40643"></path>
    <path d="M702.464 772.096c-108.544 0-196.608-88.064-196.608-196.608S593.92 377.856 702.464 377.856s196.608 88.064 196.608 196.608-88.064 197.632-196.608 197.632z m0-333.824c-74.752 0-136.192 61.44-136.192 136.192 0 74.752 61.44 136.192 136.192 136.192 74.752 0 136.192-61.44 136.192-136.192 0-74.752-60.416-136.192-136.192-136.192z"
          fill="#2c2c2c" p-id="40644"></path>
</svg>