<svg viewBox="0 0 1024 1024" xmlns="http://www.w3.org/2000/svg"
     width="200" height="200">
    <path d="M832 128a128 128 0 0 1 128 128v512a128 128 0 0 1-128 128H192a128 128 0 0 1-128-128V256a128 128 0 0 1 128-128h640z m0 64v260.096a32 32 0 0 1-49.792 26.624l-77.824-52.032-78.72 52.288A32 32 0 0 1 576 452.288V192H192c-30.464 0-56 21.312-62.72 55.808L128 256v512c0 30.464 21.312 56 55.808 62.72L192 832h640c30.464 0 56-21.312 62.72-55.808L896 768V256c0-32.832-24.704-59.904-64-64zM398.912 299.392l156.928 398.784h-49.728l-42.432-111.68H280.512l-42.496 111.68h-49.152l156.992-398.784h53.056z m-25.152 49.152h-2.24L295.04 547.84h154.24L373.76 348.544zM768 192h-128v200.512l64.512-42.752 63.488 42.432V192z"
          fill="#0F0F0F"/>
</svg>