<svg viewBox="0 0 1024 1024" xmlns="http://www.w3.org/2000/svg"
     width="200" height="200">
    <path d="M352.666112 0v118.4256h318.6688V0h118.2208v118.4256h192.1536c23.2448 0 42.2912 19.3536 42.2912 43.008V980.992a42.8032 42.8032 0 0 1-42.2912 43.0592H42.291712A42.8032 42.8032 0 0 1 0.000512 980.9408V161.4848c0-23.7056 19.0464-43.0592 42.2912-43.0592h191.0784V0h119.296zM921.600512 358.4H102.400512v563.2h819.2V358.4z"
          fill="#2c2c2c"/>
    <path d="M264.550912 486.4v307.2H179.200512v-307.2zM831.334912 486.4v307.2H745.984512v-307.2zM432.179712 585.9328c18.0736 0 37.2736 5.376 57.5488 16.384l39.7824 25.088c22.1184 13.7216 39.6288 20.48 52.5312 20.48 13.824 0 31.5904-15.0528 52.0704-46.7968l8.192-12.6464 42.24 38.144-6.656 10.752c-29.1328 46.3872-61.1328 70.8096-95.8464 70.8096-21.7088 0-45.5168-7.936-72.0896-23.9104l-10.9056-7.168-28.16-17.92c-14.6944-8.3456-27.8016-12.4416-38.7072-12.4416-16.64 0-35.0208 14.1824-55.0912 44.5952l-7.9872 12.1344-42.9568-37.2224 7.0144-10.9056c29.3888-45.824 62.3616-69.376 99.0208-69.376z"
          fill="#2c2c2c"/>
</svg>