<svg viewBox="0 0 1024 1024" xmlns="http://www.w3.org/2000/svg"
     width="200" height="200">
    <path d="M0 64.003387v896.00587c0 35.338684 28.653866 63.990743 64.00158 63.990743 35.351327 0 64.00158-28.652059 64.001581-63.990743V64.003387C128.001355 28.653866 99.351102 0 64.00158 0 28.653866 0 0 28.653866 0 64.003387zM895.998645 320.000677v640.00858c0 35.338684 28.650253 63.990743 64.001581 63.990743 35.336878 0 64.00158-28.652059 64.00158-63.990743V320.000677c0-35.338684-28.664703-63.990743-64.00158-63.990743-35.351327-0.001806-64.00158 28.652059-64.001581 63.990743zM296.956929 320.000677v640.00858c0 35.338684 28.653866 63.990743 64.005193 63.990743 35.345909 0 64.00158-28.652059 64.001581-63.990743V320.000677c0-35.338684-28.653866-63.990743-64.001581-63.990743-35.351327-0.001806-64.005193 28.652059-64.005193 63.990743zM599.038103 64.003387v896.00587c0 35.338684 28.653866 63.990743 64.003387 63.990743 35.336878 0 64.00158-28.652059 64.001581-63.990743V64.003387C727.041264 28.653866 698.378368 0 663.04149 0c-35.349521 0-64.003387 28.653866-64.003387 64.003387z"
          fill="#231815"/>
</svg>