<svg t="1748081123903" class="icon" viewBox="0 0 1024 1024" version="1.1" xmlns="http://www.w3.org/2000/svg" p-id="8746" width="200" height="200"><path d="M950.857143 95.085714h-146.285714V0h-73.142858v95.085714H292.571429V0H219.428571v95.085714H73.142857c-40.228571 0-73.142857 31.085714-73.142857 69.485715v789.942857C0 992.914286 32.914286 1024 73.142857 1024h877.714286c40.228571 0 73.142857-31.085714 73.142857-69.485714V164.571429c0-38.4-32.914286-69.485714-73.142857-69.485715zM73.142857 950.491429V292.571429h877.714286v658.285714H73.142857z" p-id="8747"></path><path d="M509.44 402.285714c-121.051429 0-219.428571 98.377143-219.428571 219.428572s98.377143 219.428571 219.428571 219.428571c47.177143 0 91.062857-15.36 126.902857-40.594286l29.988572 29.988572c7.314286 7.314286 16.457143 10.605714 25.965714 10.605714s18.651429-3.657143 25.965714-10.605714a36.425143 36.425143 0 0 0 0-51.565714l-29.988571-29.988572c25.6-35.84 40.594286-79.725714 40.594285-126.902857 0-121.051429-98.377143-219.428571-219.428571-219.428571z m0 365.714286c-80.822857 0-146.285714-65.462857-146.285714-146.285714s65.462857-146.285714 146.285714-146.285715 146.285714 65.462857 146.285714 146.285715c0 27.062857-8.045714 51.931429-20.845714 73.874285l-20.114286-20.114285a36.425143 36.425143 0 1 0-51.565714 51.565714l20.114286 20.114286c-21.577143 12.8-46.811429 20.845714-73.874286 20.845714z" p-id="8748"></path></svg>